<?xml version="1.0" encoding="UTF-8"?> <svg xmlns:xlink="http://www.w3.org/1999/xlink" xmlns="http://www.w3.org/2000/svg" version="1.1" viewBox="0.0 0.0 170.58792650918636 177.04199475065616" fill="none" stroke="none" stroke-linecap="square" stroke-miterlimit="10"><clipPath id="p.0"><path d="m0 0l170.58792 0l0 177.04199l-170.58792 0l0 -177.04199z" clip-rule="nonzero"></path></clipPath><g clip-path="url(#p.0)"><path fill="#000000" fill-opacity="0.0" d="m0 0l170.58792 0l0 177.04199l-170.58792 0z" fill-rule="evenodd"></path><path fill="#666666" d="m14.947507 76.257614l0 0c0 -10.929947 8.860473 -19.790424 19.790424 -19.790424l99.09631 0c5.248749 0 10.2825165 2.0850563 13.993942 5.796482c3.7114258 3.7114258 5.7964783 8.7451935 5.7964783 13.993942l0 79.15932c0 10.929947 -8.860474 19.79042 -19.79042 19.79042l-99.09631 0c-10.929951 0 -19.790424 -8.860474 -19.790424 -19.79042z" fill-rule="evenodd"></path><path stroke="#666666" stroke-width="1.0" stroke-linejoin="round" stroke-linecap="butt" d="m14.947507 76.257614l0 0c0 -10.929947 8.860473 -19.790424 19.790424 -19.790424l99.09631 0c5.248749 0 10.2825165 2.0850563 13.993942 5.796482c3.7114258 3.7114258 5.7964783 8.7451935 5.7964783 13.993942l0 79.15932c0 10.929947 -8.860474 19.79042 -19.79042 19.79042l-99.09631 0c-10.929951 0 -19.790424 -8.860474 -19.790424 -19.79042z" fill-rule="evenodd"></path><path fill="#000000" fill-opacity="0.0" d="m39.230972 58.136482l0 0c0 -24.770187 20.171864 -44.850395 45.055115 -44.850395l0 0c11.949364 0 23.40931 4.725296 31.85878 13.136377c8.449478 8.411079 13.196335 19.818954 13.196335 31.714016l0 0c0 24.770187 -20.17186 44.850395 -45.055115 44.850395l0 0c-24.883251 0 -45.055115 -20.080208 -45.055115 -44.850395z" fill-rule="evenodd"></path><path stroke="#666666" stroke-width="12.0" stroke-linejoin="round" stroke-linecap="butt" d="m39.230972 58.136482l0 0c0 -24.770187 20.171864 -44.850395 45.055115 -44.850395l0 0c11.949364 0 23.40931 4.725296 31.85878 13.136377c8.449478 8.411079 13.196335 19.818954 13.196335 31.714016l0 0c0 24.770187 -20.17186 44.850395 -45.055115 44.850395l0 0c-24.883251 0 -45.055115 -20.080208 -45.055115 -44.850395z" fill-rule="evenodd"></path></g></svg> 